<svg xmlns="http://www.w3.org/2000/svg" viewBox="0 0 64 64">
  <defs>
    <radialGradient id="g" cx="50%" cy="50%" r="58%">
      <stop offset="0%" stop-color="#fff7b8"/>
      <stop offset="34%" stop-color="#ff7a1a"/>
      <stop offset="68%" stop-color="#fb7185"/>
      <stop offset="100%" stop-color="#7c3aed"/>
    </radialGradient>
    <filter id="s" x="-30%" y="-30%" width="160%" height="160%">
      <feDropShadow dx="0" dy="0" stdDeviation="5" flood-color="#ff7a1a" flood-opacity=".55"/>
    </filter>
  </defs>
  <rect width="64" height="64" rx="18" fill="#08111f"/>
  <path filter="url(#s)" d="M32 4l5.4 19.4L56 12 44.6 31.6 60 32l-15.4.4L56 52 37.4 40.6 32 60l-5.4-19.4L8 52l11.4-19.6L4 32l15.4-.4L8 12l18.6 11.4L32 4z" fill="url(#g)"/>
  <path d="M32 18l3 11 11 3-11 3-3 11-3-11-11-3 11-3 3-11z" fill="#fff" opacity=".94"/>
</svg>
